<?xml version="1.0" standalone="no"?><!DOCTYPE svg PUBLIC "-//W3C//DTD SVG 1.1//EN" "http://www.w3.org/Graphics/SVG/1.1/DTD/svg11.dtd"><svg t="1774937204097" class="icon" viewBox="0 0 1024 1024" version="1.1" xmlns="http://www.w3.org/2000/svg" p-id="6992" xmlns:xlink="http://www.w3.org/1999/xlink" width="200" height="200"><path d="M837.12 750.592L598.528 512l238.592-238.592c23.552-23.552 23.552-62.464 0-86.528-23.552-23.552-62.464-23.552-86.528 0L512 425.472 273.408 186.88c-23.552-23.552-62.464-23.552-86.528 0-23.552 23.552-23.552 62.464 0 86.528L425.472 512l-238.592 238.592c-23.552 23.552-23.552 62.464 0 86.528 23.552 23.552 62.464 23.552 86.528 0l238.592-238.592 238.592 238.592c23.552 23.552 62.464 23.552 86.528 0 24.064-23.552 24.064-62.464 0-86.528z" fill="#555555" p-id="6993"></path></svg>