<?xml version="1.0" standalone="no"?><!DOCTYPE svg PUBLIC "-//W3C//DTD SVG 1.1//EN" "http://www.w3.org/Graphics/SVG/1.1/DTD/svg11.dtd"><svg t="1777262417161" class="icon" viewBox="0 0 1024 1024" version="1.1" xmlns="http://www.w3.org/2000/svg" p-id="8546" xmlns:xlink="http://www.w3.org/1999/xlink" width="200" height="200"><path d="M174.08 235.52a61.44 61.44 0 0 0-61.44 60.8256v431.3088A61.44 61.44 0 0 0 174.08 788.48h675.84a61.44 61.44 0 0 0 61.44-60.8256V296.3456A61.44 61.44 0 0 0 849.92 235.52z m0-61.44h675.84a122.5728 122.5728 0 0 1 122.88 122.2656v431.3088A122.5728 122.5728 0 0 1 849.92 849.92H174.08a122.5728 122.5728 0 0 1-122.88-122.2656V296.3456A122.5728 122.5728 0 0 1 174.08 174.08z m675.84 61.44H174.08a61.44 61.44 0 0 0-55.808 35.84l310.5792 289.6384a122.88 122.88 0 0 0 167.7312 0L905.8304 271.36A61.44 61.44 0 0 0 849.92 235.52z m111.8208 10.24c7.4752 31.232 10.24 47.9232 7.68 50.1248l-330.8544 309.4016a184.32 184.32 0 0 1-251.5968 0L53.3504 294.7072c-2.0992-2.048 0.9728-18.432 9.216-49.3568A122.88 122.88 0 0 1 174.08 174.08h675.84a122.88 122.88 0 0 1 111.8208 71.68z" fill="#555555" p-id="8547"></path><path d="M850.2272 856.064H173.7728A128.768 128.768 0 0 1 45.056 727.6544V296.3456A128.768 128.768 0 0 1 173.7728 167.936h676.4544a128.768 128.768 0 0 1 128.7168 128.4096v431.3088a128.768 128.768 0 0 1-128.7168 128.4096zM174.08 843.776h675.84a116.4288 116.4288 0 0 0 116.736-116.1216V306.8928l-49.152 46.08v374.8352A67.7888 67.7888 0 0 1 849.92 794.624H174.08a67.7888 67.7888 0 0 1-67.584-66.9184V352.5632l-49.152-45.7216v420.8128a116.4288 116.4288 0 0 0 116.4288 116.1216zM118.784 364.032v363.52A55.4496 55.4496 0 0 0 174.08 782.336h675.84a55.5008 55.5008 0 0 0 55.296-54.7328v-363.52l-262.4512 245.7088a191.0784 191.0784 0 0 1-259.9936 0z m0-16.7936l272.384 253.5424a178.6368 178.6368 0 0 0 243.2 0l270.848-253.2864v-51.2a53.8112 53.8112 0 0 0-1.9968-14.1312l-302.4384 283.2896a129.4848 129.4848 0 0 1-176.128 0L120.832 282.112a54.9888 54.9888 0 0 0-2.048 14.2848z m7.0656-77.2096l307.2 286.72a117.0432 117.0432 0 0 0 159.3344 0l305.8176-286.4128a55.4496 55.4496 0 0 0-48.2816-28.672H174.08a55.1424 55.1424 0 0 0-29.4912 8.6016 55.7568 55.7568 0 0 0-18.7392 19.712z m787.2512 2.9696a67.4816 67.4816 0 0 1 4.4032 23.296v39.7312l46.7456-43.6736c0-3.1744-0.8704-13.2608-8.3456-44.5952A117.0432 117.0432 0 0 0 849.92 180.224H174.08a117.0944 117.0944 0 0 0-105.728 67.2256c-8.2944 31.232-9.472 40.96-9.5232 43.9808l47.6672 44.3392v-39.424a66.9184 66.9184 0 0 1 4.4544-23.3984l1.6896-4.1472a67.6352 67.6352 0 0 1 61.44-39.424h675.84a67.6864 67.6864 0 0 1 61.44 39.424l1.8432 4.0448zM58.88 292.4032z m906.24-1.024l-0.256 0.256z" fill="#555555" p-id="8548"></path></svg>