<?xml version="1.0" standalone="no"?><!DOCTYPE svg PUBLIC "-//W3C//DTD SVG 1.1//EN" "http://www.w3.org/Graphics/SVG/1.1/DTD/svg11.dtd"><svg t="1775032545348" class="icon" viewBox="0 0 1024 1024" version="1.1" xmlns="http://www.w3.org/2000/svg" p-id="7681" xmlns:xlink="http://www.w3.org/1999/xlink" width="200" height="200"><path d="M716.032 970.752c0 23.7568-17.4592 43.008-38.9632 43.008H167.3216c-83.968 0-153.6-69.6832-153.6-157.696V167.936C13.9264 79.872 83.3024 10.24 167.3216 10.24h509.7472c21.504 0 38.9632 19.2512 38.9632 43.008s-17.4592 43.008-38.9632 43.008H167.3216c-42.4448 0-75.1616 33.0752-75.1616 71.68v688.128c0 38.6048 32.9728 71.68 75.4176 71.68h509.7472c21.504 0 38.9632 19.3024 38.9632 43.008z m290.56-436.0192l-4.2496 4.8128-234.0352 229.376a44.4928 44.4928 0 0 1-62.0032 0.512 42.3936 42.3936 0 0 1-4.352-56.32l4.3008-4.8128 159.0272-156.16H427.1616c-13.2608 0-24.2176-15.872-26.0608-36.608l-0.3072-6.4c0-21.6064 9.728-39.424 22.4256-42.496l3.9424-0.512H865.28l-159.0272-155.9552a42.3936 42.3936 0 0 1-4.3008-56.0128l4.3008-4.8128a44.544 44.544 0 0 1 57.088-4.1472l5.12 4.1472 234.0352 229.376a42.3936 42.3936 0 0 1 4.2496 56.0128z" fill="#555555" p-id="7682" class="selected"></path></svg>