<?xml version="1.0" standalone="no"?><!DOCTYPE svg PUBLIC "-//W3C//DTD SVG 1.1//EN" "http://www.w3.org/Graphics/SVG/1.1/DTD/svg11.dtd"><svg t="1775136136597" class="icon" viewBox="0 0 1024 1024" version="1.1" xmlns="http://www.w3.org/2000/svg" p-id="8131" xmlns:xlink="http://www.w3.org/1999/xlink" width="200" height="200"><path d="M146.944 1024C66.048 1024 0 955.392 0 870.912V321.024c0-84.48 66.048-153.088 146.944-153.088h730.624c80.896 0 146.944 68.608 146.944 153.088v549.888c0 84.48-66.048 153.088-146.944 153.088H146.944z m0-782.336c-41.984 0-76.288 35.84-76.288 79.36v549.888c0 44.032 34.304 79.36 76.288 79.36h730.624c41.984 0 76.288-35.84 76.288-79.36V321.024c0-44.032-34.304-79.36-76.288-79.36H146.944z" fill="#3BA0FE" p-id="8132"></path><path d="M47.104 524.8V454.144h929.28v70.656H47.104z m585.728-355.328v-50.176c0-24.064-19.456-43.008-43.008-43.008H434.176c-24.064 0-43.008 19.456-43.008 43.008v50.176H320.512v-50.176c0-62.976 51.2-113.664 113.664-113.664h155.648c62.976 0 113.664 51.2 113.664 113.664v50.176h-70.656z" fill="#3BA0FE" p-id="8133"></path><path d="M512 677.888c-69.12 0-125.952-56.32-125.952-125.952 0-25.6 7.68-49.664 21.504-70.656l56.32 43.52c-4.608 8.192-7.168 17.408-7.168 27.136 0 30.208 24.576 55.296 55.296 55.296 30.208 0 55.296-24.576 55.296-55.296 0-9.728-2.56-18.944-7.168-27.136l56.32-43.52c14.336 20.992 21.504 45.568 21.504 70.656 0 69.632-56.32 125.952-125.952 125.952z" fill="#3BA0FE" p-id="8134"></path></svg>