<?xml version="1.0" standalone="no"?><!DOCTYPE svg PUBLIC "-//W3C//DTD SVG 1.1//EN" "http://www.w3.org/Graphics/SVG/1.1/DTD/svg11.dtd"><svg t="1777262390210" class="icon" viewBox="0 0 1024 1024" version="1.1" xmlns="http://www.w3.org/2000/svg" p-id="8360" xmlns:xlink="http://www.w3.org/1999/xlink" width="200" height="200"><path d="M376.2688 261.6832h247.2448a71.0656 71.0656 0 0 0 49.2032-46.6432 1.28 1.28 0 0 1 0-0.3584l98.6624-167.2192a2.3552 2.3552 0 0 0 0.3072-1.1776 48.2816 48.2816 0 0 0-49.4592-46.08h-445.44a48.2304 48.2304 0 0 0-49.408 46.08 1.9456 1.9456 0 0 0 0.3072 1.1776l98.7136 167.1168a1.28 1.28 0 0 1 0 0.3584 70.656 70.656 0 0 0 49.1008 46.6944z m245.76 9.9328H377.4976a2.0992 2.0992 0 0 0-1.9968 1.536L227.9424 747.52a2.0992 2.0992 0 0 0 0.512 2.1504l269.7728 272.896a2.1504 2.1504 0 0 0 2.8672 0L795.3408 773.12a2.1504 2.1504 0 0 0 0.6144-2.3552l-172.1856-497.7152a2.2016 2.2016 0 0 0-1.9968-1.4336z" fill="#ffffff" p-id="8361"></path></svg>