<?xml version="1.0" standalone="no"?><!DOCTYPE svg PUBLIC "-//W3C//DTD SVG 1.1//EN" "http://www.w3.org/Graphics/SVG/1.1/DTD/svg11.dtd"><svg t="1777262374736" class="icon" viewBox="0 0 1024 1024" version="1.1" xmlns="http://www.w3.org/2000/svg" p-id="8222" id="mx_n_1777262374737" xmlns:xlink="http://www.w3.org/1999/xlink" width="200" height="200"><path d="M1007.0016 331.3664l-485.7344-226.8672A21.504 21.504 0 0 0 512 102.4a22.016 22.016 0 0 0-9.2672 2.0992L16.9984 331.3664a35.84 35.84 0 0 0 0 60.928l485.7344 226.8672a21.4016 21.4016 0 0 0 18.5344 0l377.6512-176.384v180.4288c-20.48 11.6736-34.304 36.9664-34.304 66.56s14.0288 54.784 34.304 66.56V819.2h49.7152v-63.1296c20.48-11.6736 34.3552-36.9664 34.3552-66.56s-14.08-54.784-34.3552-66.56V419.5328l58.368-27.2384a35.84 35.84 0 0 0 0-60.928zM512 664.6784a51.2 51.2 0 0 1-21.7088-5.12l-302.7456-141.2096v195.2768c0 159.9488 220.7744 207.9744 289.8432 207.9744h69.2224c51.712 0 289.8432-48.0256 289.8432-207.9744v-195.2768l-302.7968 141.4144a50.5344 50.5344 0 0 1-21.6576 5.12z" fill="#ffffff" p-id="8223"></path></svg>