<?xml version="1.0" standalone="no"?><!DOCTYPE svg PUBLIC "-//W3C//DTD SVG 1.1//EN" "http://www.w3.org/Graphics/SVG/1.1/DTD/svg11.dtd"><svg t="1775135740799" class="icon" viewBox="0 0 1024 1024" version="1.1" xmlns="http://www.w3.org/2000/svg" p-id="8173" xmlns:xlink="http://www.w3.org/1999/xlink" width="200" height="200"><path d="M850.944 598.528c0-92.672-29.184-180.736-83.968-253.44l132.096-132.096v102.912c0 17.408 7.168 32.768 18.432 44.032 11.264 11.264 26.624 18.432 44.032 18.432 34.304 0 62.464-27.648 62.464-62.464V67.584v-5.12c0-17.408-7.168-32.768-18.432-44.032-11.264-11.264-26.624-18.432-44.032-18.432h-253.44c-34.304 0-62.464 27.648-62.464 62.464 0 17.408 7.168 32.768 18.432 44.032 11.264 11.264 26.624 18.432 44.032 18.432h102.912l-132.096 132.096c-72.704-54.272-161.28-83.968-253.44-83.968-113.664 0-220.672 44.032-301.056 124.416C44.032 377.856 0 484.864 0 598.528c0 113.664 44.032 220.672 124.416 301.056C204.8 979.968 311.808 1024 425.472 1024c113.664 0 220.672-44.032 301.056-124.416 80.384-80.384 124.416-187.392 124.416-301.056z m-425.472 301.056c-80.384 0-156.16-31.232-212.992-88.064-56.832-56.832-88.064-132.608-88.064-212.992 0-80.384 31.232-156.16 88.064-212.992 56.832-56.832 132.608-88.064 212.992-88.064 80.384 0 156.16 31.232 212.992 88.064 56.832 56.832 88.064 132.608 88.064 212.992 0 80.384-31.232 156.16-88.064 212.992-56.832 56.832-132.608 88.064-212.992 88.064z" fill="#0080FF" p-id="8174"></path></svg>