<?xml version="1.0" standalone="no"?><!DOCTYPE svg PUBLIC "-//W3C//DTD SVG 1.1//EN" "http://www.w3.org/Graphics/SVG/1.1/DTD/svg11.dtd"><svg t="1777262424578" class="icon" viewBox="0 0 1024 1024" version="1.1" xmlns="http://www.w3.org/2000/svg" p-id="8697" xmlns:xlink="http://www.w3.org/1999/xlink" width="200" height="200"><path d="M846.1824 877.824a118.784 118.784 0 0 1-10.9056 50.688 133.9392 133.9392 0 0 1-30.0032 41.4208 141.9264 141.9264 0 0 1-44.6976 28.3648 145.2032 145.2032 0 0 1-55.04 10.24H318.464a145.2032 145.2032 0 0 1-55.04-10.24 141.9264 141.9264 0 0 1-44.6976-28.3648 133.9392 133.9392 0 0 1-30.0032-41.4208 118.784 118.784 0 0 1-10.9056-50.688V147.3024a122.3168 122.3168 0 0 1 10.9056-51.2 132.1984 132.1984 0 0 1 30.0032-41.984A141.9264 141.9264 0 0 1 263.424 25.6 145.2032 145.2032 0 0 1 318.464 15.36h387.072a145.2032 145.2032 0 0 1 55.04 10.24 141.9264 141.9264 0 0 1 44.6976 28.3648 132.1984 132.1984 0 0 1 30.0032 41.984 122.3168 122.3168 0 0 1 10.9056 51.2zM757.76 199.68H265.0624v624.64H757.76zM511.4368 855.04a55.3472 55.3472 0 0 0-39.7824 16.384 53.8624 53.8624 0 0 0-16.896 40.3456 57.7024 57.7024 0 0 0 56.6784 56.6784 53.8624 53.8624 0 0 0 40.3456-16.896 55.3472 55.3472 0 0 0 16.384-39.7824A55.9616 55.9616 0 0 0 511.4368 855.04z m87.04-747.9296a17.7664 17.7664 0 0 0-17.4592-18.5344h-138.24a18.432 18.432 0 0 0-11.4688 5.12 16.5376 16.5376 0 0 0-5.9904 13.6192 17.7664 17.7664 0 0 0 17.4592 18.5344h138.24a17.7664 17.7664 0 0 0 17.4592-18.5344z" fill="#555555" p-id="8698"></path></svg>