<svg t="1504083985757" class="icon" viewBox="0 0 1024 1024" version="1.1"
  xmlns="http://www.w3.org/2000/svg" p-id="2220" xmlns:xlink="http://www.w3.org/1999/xlink" width="200" height="200">
  <defs>
    <style type="text/css"></style>
  </defs>
  <path
    d="M504.428606 68.251152c-171.457939 0-310.954667 139.496727-310.954667 310.954666s139.496727 310.954667 310.954667 310.954667 310.954667-139.481212 310.954667-310.954667S675.886545 68.251152 504.428606 68.251152z m-78.134303 462.196363h-27.927273V348.501333a350.952727 350.952727 0 0 1-27.570424 36.786425c-2.963394-6.578424-11.512242-22.341818-16.446061-29.230546 28.563394-30.875152 54.830545-78.81697 70.950788-126.43297l27.570425 8.207516a644.421818 644.421818 0 0 1-26.577455 62.060606v230.555151z m206.87903-1.954909h-26.934303v-10.860606h-115.26206v11.822545h-25.956849v-106.387393H633.173333v105.425454z m-3.630545-153.708606v24.281212H469.628121v-24.281212h159.914667z m-159.914667-22.016v-24.296727h159.930182v24.296727H469.628121z m184.894061-46.964364H446.293333v-24.948363h96.256c-4.608-11.838061-13.824-29.556364-22.031515-42.682182l26.282667-10.177939c8.859152 13.141333 18.711273 30.859636 23.629576 42.697696l-23.629576 10.17794h107.706182v24.932848z"
    fill="#E98F36" p-id="2221"></path>
  <path
    d="M928.938667 868.879515L789.969455 628.208485c58.181818-66.668606 93.66497-153.6 93.664969-249.002667C883.634424 169.766788 713.867636 0 504.428606 0 294.989576 0 125.207273 169.766788 125.207273 379.205818c0 100.38303 39.268848 191.363879 102.94303 259.196121L95.076848 868.879515c-21.302303 36.910545-3.475394 48.003879 9.69697 44.295758l134.516364-35.26594 36.693333 134.128485c3.382303 13.249939 21.907394 23.148606 43.240727-13.761939l140.148364-242.750061c14.801455 1.753212 29.773576 2.916848 45.040485 2.916849 20.107636 0 39.703273-2.032485 58.957576-5.026909l141.389575 244.875636c21.317818 36.910545 39.842909 26.996364 43.225213 13.761939l36.693333-134.128485 134.516364 35.26594c13.203394 3.692606 31.030303-7.400727 9.743515-44.311273z m-424.510061-147.704242c-188.571152 0-341.98497-153.429333-341.98497-341.98497 0-188.571152 153.413818-341.98497 341.98497-341.98497s341.98497 153.413818 341.98497 341.98497c0.015515 188.571152-153.413818 341.98497-341.98497 341.98497z"
    fill="#E98F36" p-id="2222"></path>
  <path d="M490.961455 447.674182h115.26206v45.319757h-115.26206z" fill="#E98F36" p-id="2223"></path>
</svg>