<?xml version="1.0" standalone="no"?><!DOCTYPE svg PUBLIC "-//W3C//DTD SVG 1.1//EN" "http://www.w3.org/Graphics/SVG/1.1/DTD/svg11.dtd"><svg t="1777260702145" class="icon" viewBox="0 0 1024 1024" version="1.1" xmlns="http://www.w3.org/2000/svg" p-id="7678" xmlns:xlink="http://www.w3.org/1999/xlink" width="200" height="200"><path d="M681.216 539.7504a231.424 231.424 0 0 0 46.7456-210.2272l110.3872-59.6992a57.344 57.344 0 0 0-0.4608-100.864L531.6096 6.656a57.2928 57.2928 0 0 0-53.5552 0L171.008 168.96a57.2928 57.2928 0 0 0-0.4608 101.12l110.336 59.2384a231.5264 231.5264 0 0 0 51.2 215.552 409.6 409.6 0 0 0-154.112 131.84 405.248 405.248 0 0 0-74.8032 235.0592 78.0288 78.0288 0 0 0 77.8752 77.9264h244.8896a40.192 40.192 0 0 0 9.8816-1.2288l52.1216 30.1056a40.5504 40.5504 0 0 0 40.4992 0l103.1168-59.4944a40.4992 40.4992 0 0 0 20.48-35.1232v-118.9888a40.3968 40.3968 0 0 0-20.48-35.072l-103.1168-59.5456a40.5504 40.5504 0 0 0-40.4992 0l-103.0656 59.5456a40.3968 40.3968 0 0 0-20.48 35.072v103.7312H184.32a324.8128 324.8128 0 0 1 59.904-185.2416 329.6768 329.6768 0 0 1 153.088-118.6816 40.2944 40.2944 0 0 0 9.0624-4.7616 231.4752 231.4752 0 0 0 203.9296-3.6864 39.7824 39.7824 0 0 0 11.9296 6.7072A329.3184 329.3184 0 0 1 839.68 908.8a40.4992 40.4992 0 0 0 3.1232 80.896 78.0288 78.0288 0 0 0 77.9264-77.9264A410.4192 410.4192 0 0 0 680.96 539.7504zM445.44 828.3648l62.5664-36.1472 62.5664 36.1472v72.2432l-62.5664 35.84-62.5664-35.84z m58.7264-287.488a150.6816 150.6816 0 1 1 150.6816-150.6816 150.8352 150.8352 0 0 1-150.4768 150.6304z m0-382.3104A231.3728 231.3728 0 0 0 315.648 256l-67.584-36.4544L504.832 84.1216l256 135.4752L693.248 256a231.6288 231.6288 0 0 0-188.8768-97.28z" fill="#1296db" p-id="7679" class="selected"></path></svg>