<?xml version="1.0" standalone="no"?><!DOCTYPE svg PUBLIC "-//W3C//DTD SVG 1.1//EN" "http://www.w3.org/Graphics/SVG/1.1/DTD/svg11.dtd"><svg t="1775135750327" class="icon" viewBox="0 0 1024 1024" version="1.1" xmlns="http://www.w3.org/2000/svg" p-id="8363" xmlns:xlink="http://www.w3.org/1999/xlink" width="200" height="200"><path d="M910.023737 113.877617a388.489067 388.489067 0 0 0-586.649717 506.279731l-66.855544 66.855543L97.263042 527.347929a56.822093 56.822093 0 0 0-80.369987 80.369987l159.511389 159.562581L114.30967 829.37527A56.822093 56.822093 0 0 0 194.526084 909.591685l61.838819-61.838819 159.56258 159.511389A56.822093 56.822093 0 0 0 496.553426 926.894268l-159.664963-159.511389 66.855544-66.855544A388.540258 388.540258 0 0 0 1023.821497 388.568925a385.77594 385.77594 0 0 0-113.79776-274.691308z m-80.369987 469.012628a274.742499 274.742499 0 1 1 80.523561-194.526084 273.053193 273.053193 0 0 1-80.523561 194.526084z" fill="#F74D4D" p-id="8364"></path></svg>